<svg xmlns="http://www.w3.org/2000/svg" viewBox="0 0 64 64" fill="none">
  <path fill="black" d="M20 10a3 3 0 0 1 4.24 0L32 17.76 39.76 10A3 3 0 1 1 44 14.24l-6.05 6.05H47a9 9 0 0 1 9 9v18a9 9 0 0 1-9 9H17a9 9 0 0 1-9-9v-18a9 9 0 0 1 9-9h9.05L20 14.24A3 3 0 0 1 20 10Zm-3 16a3 3 0 0 0-3 3v18a3 3 0 0 0 3 3h30a3 3 0 0 0 3-3v-18a3 3 0 0 0-3-3H17Zm9 10a3 3 0 0 1 3 3v4a3 3 0 1 1-6 0v-4a3 3 0 0 1 3-3Zm12 0a3 3 0 0 1 3 3v4a3 3 0 1 1-6 0v-4a3 3 0 0 1 3-3Zm-10 14h8a3 3 0 1 1 0 6h-8a3 3 0 1 1 0-6Z"/>
</svg>
